<svg width="21" height="28" viewBox="0 0 21 28" fill="none" xmlns="http://www.w3.org/2000/svg">
<path fill-rule="evenodd" clip-rule="evenodd" d="M8.15659 2.98063C8.59723 2.63561 8.95048 2.39578 9.31463 2.23804C9.66977 2.08421 10.0556 2 10.5657 2C11.0758 2 11.4617 2.08421 11.8168 2.23804C12.181 2.39578 12.5342 2.63561 12.9749 2.98063C13.7273 3.56978 14.0351 4.05066 14.4596 4.9704C14.6491 5.38094 14.749 5.89068 14.7884 6.43478H11.1092H6.3431C6.38249 5.89068 6.4824 5.38094 6.67188 4.9704C7.09638 4.05066 7.40418 3.56978 8.15659 2.98063ZM5.33021 7.43478C5.34076 7.71898 5.3613 7.99373 5.38683 8.2504C5.44431 8.82833 5.53036 9.34268 5.60194 9.71248C5.63779 9.89769 5.67017 10.0474 5.69378 10.1516C5.70559 10.2038 5.71522 10.2446 5.72202 10.2728L5.73 10.3056L5.73224 10.3146L5.7329 10.3172L5.73311 10.318L5.73319 10.3183C5.73322 10.3184 5.73324 10.3185 6.2179 10.1957C6.70257 10.0728 6.70259 10.0728 6.7026 10.0729L6.70258 10.0728L6.70228 10.0716L6.70076 10.0655L6.69425 10.0388C6.68845 10.0147 6.67984 9.97824 6.66907 9.93069C6.64751 9.83556 6.61735 9.69619 6.58372 9.52244C6.51633 9.17433 6.43562 8.69131 6.38192 8.15142C6.35858 7.91679 6.3409 7.67619 6.33118 7.43478H11.1092H14.8003C14.7906 7.67619 14.7729 7.91679 14.7495 8.15142C14.6958 8.69131 14.6151 9.17433 14.5477 9.52244C14.5141 9.69619 14.4839 9.83556 14.4624 9.93069C14.4516 9.97824 14.443 10.0147 14.4372 10.0388L14.4307 10.0655L14.4292 10.0716L14.4289 10.0728L14.4289 10.0729C14.4289 10.0728 14.4289 10.0728 14.9136 10.1957C15.3982 10.3185 15.3982 10.3184 15.3983 10.3183L15.3983 10.318L15.3986 10.3172L15.3992 10.3146L15.4015 10.3056L15.4094 10.2728C15.4162 10.2446 15.4259 10.2038 15.4377 10.1516C15.4613 10.0474 15.4937 9.89769 15.5295 9.71248C15.6011 9.34268 15.6872 8.82833 15.7446 8.2504C15.7702 7.99373 15.7907 7.71898 15.8012 7.43478H18.2578L19.6695 24.3754C19.7424 25.25 19.0523 26 18.1747 26H3.50017C2.62261 26 1.93248 25.25 2.00535 24.3754L3.41708 7.43478H5.33021ZM5.34078 6.43478C5.38326 5.77218 5.50532 5.11166 5.76393 4.55134C6.22884 3.54402 6.62142 2.91262 7.54008 2.19328C7.99935 1.83367 8.43332 1.53001 8.91715 1.32043C9.40999 1.10695 9.93288 1 10.5657 1C11.1986 1 11.7215 1.10695 12.2143 1.32043C12.6981 1.53001 13.1321 1.83367 13.5914 2.19328C14.51 2.91262 14.9026 3.54402 15.3675 4.55134C15.6261 5.11166 15.7482 5.77218 15.7907 6.43478H18.7179H19.1779L19.2162 6.89326L20.6661 24.2924C20.7875 25.7499 19.6373 27 18.1747 27H3.50017C2.03757 27 0.887346 25.7499 1.00881 24.2924L2.45874 6.89326L2.49694 6.43478H2.95701H5.34078Z" fill="black"/>
<path d="M9.31463 2.23804L9.414 2.46745L9.31463 2.23804ZM8.15659 2.98063L8.00247 2.78379L8.15659 2.98063ZM11.8168 2.23804L11.9162 2.00864L11.8168 2.23804ZM12.9749 2.98063L12.8207 3.17747V3.17747L12.9749 2.98063ZM14.4596 4.9704L14.6866 4.86563V4.86563L14.4596 4.9704ZM14.7884 6.43478V6.68478H15.0571L15.0377 6.41673L14.7884 6.43478ZM6.3431 6.43478L6.09375 6.41673L6.07435 6.68478H6.3431V6.43478ZM6.67188 4.9704L6.89887 5.07516L6.67188 4.9704ZM5.38683 8.2504L5.13806 8.27514L5.38683 8.2504ZM5.33021 7.43478L5.58004 7.42551L5.57111 7.18478H5.33021V7.43478ZM5.60194 9.71248L5.3565 9.76L5.60194 9.71248ZM5.69378 10.1516L5.44996 10.2069V10.2069L5.69378 10.1516ZM5.72202 10.2728L5.47896 10.3313L5.47913 10.332L5.72202 10.2728ZM5.73 10.3056L5.48711 10.3647L5.48739 10.3659L5.73 10.3056ZM5.73224 10.3146L5.48963 10.3749L5.48978 10.3755L5.73224 10.3146ZM5.7329 10.3172L5.49043 10.3781L5.49051 10.3784L5.7329 10.3172ZM5.73311 10.318L5.49073 10.3793L5.49076 10.3794L5.73311 10.318ZM5.73319 10.3183L5.97572 10.2577L5.97554 10.257L5.73319 10.3183ZM6.7026 10.0729L6.46026 10.1343L6.94514 10.0123L6.7026 10.0729ZM6.70258 10.0728L6.46012 10.1337L6.46024 10.1342L6.70258 10.0728ZM6.70228 10.0716L6.45967 10.1319L6.45982 10.1325L6.70228 10.0716ZM6.70076 10.0655L6.45786 10.1247L6.45815 10.1258L6.70076 10.0655ZM6.69425 10.0388L6.45119 10.0973L6.45135 10.098L6.69425 10.0388ZM6.66907 9.93069L6.91289 9.87545L6.91289 9.87545L6.66907 9.93069ZM6.58372 9.52244L6.82916 9.47493L6.58372 9.52244ZM6.38192 8.15142L6.13315 8.17617V8.17617L6.38192 8.15142ZM6.33118 7.43478V7.18478H6.0709L6.08138 7.44485L6.33118 7.43478ZM14.8003 7.43478L15.0501 7.44485L15.0606 7.18478H14.8003V7.43478ZM14.7495 8.15142L14.5008 8.12668V8.12668L14.7495 8.15142ZM14.5477 9.52244L14.7932 9.56995V9.56995L14.5477 9.52244ZM14.4624 9.93069L14.2186 9.87545V9.87545L14.4624 9.93069ZM14.4372 10.0388L14.6801 10.098L14.6803 10.0973L14.4372 10.0388ZM14.4307 10.0655L14.6733 10.1258L14.6736 10.1247L14.4307 10.0655ZM14.4292 10.0716L14.6716 10.1326L14.6718 10.1319L14.4292 10.0716ZM14.4289 10.0728L14.6712 10.1342L14.6713 10.1338L14.4289 10.0728ZM14.4289 10.0729L14.1865 10.0115L14.6705 10.1371L14.4289 10.0729ZM14.9136 10.1957L14.975 9.95332L14.9136 10.1957ZM15.3983 10.3183L15.6403 10.3809L15.6407 10.3793L15.3983 10.3183ZM15.3983 10.318L15.1559 10.2569L15.1559 10.257L15.3983 10.318ZM15.3986 10.3172L15.641 10.3783L15.641 10.3781L15.3986 10.3172ZM15.3992 10.3146L15.6417 10.3755L15.6418 10.3749L15.3992 10.3146ZM15.4015 10.3056L15.6441 10.3659L15.6444 10.3647L15.4015 10.3056ZM15.4094 10.2728L15.6523 10.332L15.6525 10.3313L15.4094 10.2728ZM15.4377 10.1516L15.1939 10.0964L15.1939 10.0964L15.4377 10.1516ZM15.5295 9.71248L15.2841 9.66497V9.66497L15.5295 9.71248ZM15.7446 8.2504L15.9934 8.27514V8.27514L15.7446 8.2504ZM15.8012 7.43478V7.18478H15.5604L15.5514 7.42551L15.8012 7.43478ZM18.2578 7.43478L18.507 7.41402L18.4878 7.18478H18.2578V7.43478ZM19.6695 24.3754L19.4204 24.3962L19.6695 24.3754ZM2.00535 24.3754L1.75622 24.3547L2.00535 24.3754ZM3.41708 7.43478V7.18478H3.18704L3.16794 7.41402L3.41708 7.43478ZM5.34078 6.43478V6.68478H5.57526L5.59027 6.45078L5.34078 6.43478ZM5.76393 4.55134L5.99091 4.65611V4.6561L5.76393 4.55134ZM7.54008 2.19328L7.38596 1.99645L7.54008 2.19328ZM8.91715 1.32043L8.81778 1.09103V1.09103L8.91715 1.32043ZM12.2143 1.32043L12.1149 1.54983V1.54983L12.2143 1.32043ZM13.5914 2.19328L13.4372 2.39012V2.39012L13.5914 2.19328ZM15.3675 4.55134L15.1405 4.6561V4.65611L15.3675 4.55134ZM15.7907 6.43478L15.5412 6.45078L15.5562 6.68478H15.7907V6.43478ZM19.1779 6.43478L19.4271 6.41402L19.408 6.18478H19.1779V6.43478ZM19.2162 6.89326L18.967 6.91402V6.91402L19.2162 6.89326ZM20.6661 24.2924L20.9152 24.2716L20.6661 24.2924ZM1.00881 24.2924L0.759672 24.2716H0.759672L1.00881 24.2924ZM2.45874 6.89326L2.2096 6.8725L2.45874 6.89326ZM2.49694 6.43478V6.18478H2.26691L2.24781 6.41402L2.49694 6.43478ZM9.21526 2.00864C8.82115 2.17935 8.4477 2.43516 8.00247 2.78379L8.31072 3.17747C8.74675 2.83605 9.0798 2.61221 9.414 2.46745L9.21526 2.00864ZM10.5657 1.75C10.0249 1.75 9.60482 1.8399 9.21526 2.00864L9.414 2.46745C9.73472 2.32852 10.0863 2.25 10.5657 2.25V1.75ZM11.9162 2.00864C11.5266 1.8399 11.1065 1.75 10.5657 1.75V2.25C11.0451 2.25 11.3967 2.32852 11.7175 2.46745L11.9162 2.00864ZM13.129 2.78379C12.6838 2.43516 12.3103 2.17935 11.9162 2.00864L11.7175 2.46745C12.0517 2.61221 12.3847 2.83605 12.8207 3.17747L13.129 2.78379ZM14.6866 4.86563C14.252 3.92399 13.923 3.40549 13.129 2.78379L12.8207 3.17747C13.5316 3.73408 13.8182 4.17732 14.2326 5.07516L14.6866 4.86563ZM15.0377 6.41673C14.9972 5.857 14.8935 5.31409 14.6866 4.86563L14.2326 5.07516C14.4046 5.44779 14.5008 5.92436 14.539 6.45284L15.0377 6.41673ZM11.1092 6.68478H14.7884V6.18478H11.1092V6.68478ZM6.3431 6.68478H11.1092V6.18478H6.3431V6.68478ZM6.44489 4.86563C6.23792 5.31409 6.13428 5.857 6.09375 6.41673L6.59245 6.45284C6.63071 5.92436 6.72689 5.44779 6.89887 5.07516L6.44489 4.86563ZM8.00247 2.78379C7.2085 3.40549 6.8795 3.92399 6.44489 4.86563L6.89887 5.07516C7.31326 4.17732 7.59987 3.73408 8.31072 3.17747L8.00247 2.78379ZM5.6356 8.22565C5.6105 7.97326 5.59037 7.70374 5.58004 7.42551L5.08039 7.44405C5.09115 7.73423 5.1121 8.0142 5.13806 8.27514L5.6356 8.22565ZM5.84739 9.66497C5.77685 9.30059 5.69214 8.79407 5.6356 8.22565L5.13806 8.27514C5.19648 8.86258 5.28386 9.38476 5.3565 9.76L5.84739 9.66497ZM5.9376 10.0964C5.91451 9.99446 5.88268 9.84732 5.84739 9.66497L5.3565 9.76C5.39291 9.94807 5.42583 10.1004 5.44996 10.2069L5.9376 10.0964ZM5.96508 10.2143C5.95853 10.1871 5.94915 10.1474 5.9376 10.0964L5.44996 10.2069C5.46203 10.2602 5.47192 10.3021 5.47896 10.3313L5.96508 10.2143ZM5.97289 10.2464L5.96491 10.2136L5.47913 10.332L5.48711 10.3647L5.97289 10.2464ZM5.97485 10.2542L5.97261 10.2452L5.48739 10.3659L5.48963 10.3749L5.97485 10.2542ZM5.97537 10.2563L5.97471 10.2537L5.48978 10.3755L5.49043 10.3781L5.97537 10.2563ZM5.9755 10.2568L5.97529 10.256L5.49051 10.3784L5.49073 10.3793L5.9755 10.2568ZM5.97554 10.257L5.97546 10.2567L5.49076 10.3794L5.49084 10.3797L5.97554 10.257ZM6.15646 9.95332C5.91412 10.0148 5.79302 10.0454 5.73252 10.0607C5.70218 10.0684 5.68735 10.0722 5.68015 10.074C5.67618 10.0749 5.6756 10.0751 5.67621 10.0749C5.67647 10.0749 5.67731 10.0747 5.67848 10.0744C5.67921 10.0742 5.68229 10.0735 5.68632 10.0728C5.68831 10.0724 5.69242 10.0716 5.69768 10.0709C5.70133 10.0703 5.71382 10.0686 5.72994 10.0684C5.73486 10.0683 5.79454 10.0654 5.85729 10.1013C5.89773 10.1244 5.93067 10.1583 5.95271 10.1987C5.96241 10.2165 5.96807 10.2321 5.9713 10.2421C5.9725 10.246 5.97418 10.2518 5.97471 10.2538C5.97522 10.2557 5.97572 10.2577 5.97572 10.2577L5.49065 10.379C5.49181 10.3836 5.51137 10.4795 5.60909 10.5354C5.67184 10.5712 5.73154 10.5684 5.73647 10.5683C5.75261 10.5681 5.76512 10.5663 5.7688 10.5658C5.77409 10.565 5.77826 10.5643 5.7803 10.5639C5.78445 10.5631 5.78771 10.5623 5.78871 10.5621C5.79014 10.5618 5.79135 10.5615 5.79208 10.5613C5.79459 10.5607 5.7978 10.5599 5.80141 10.559C5.80937 10.557 5.82485 10.5531 5.8551 10.5455C5.91578 10.5301 6.03703 10.4994 6.27935 10.438L6.15646 9.95332ZM6.94514 10.0123C6.94514 10.0123 6.94419 10.0086 6.94319 10.0049C6.94213 10.0013 6.93866 9.99057 6.93608 9.98352C6.92874 9.96435 6.91617 9.93859 6.89443 9.91258C6.84825 9.85732 6.79188 9.83706 6.75976 9.82952C6.73017 9.82257 6.70623 9.82276 6.69733 9.82295C6.6862 9.82318 6.67742 9.82412 6.67298 9.82465C6.6641 9.82571 6.65723 9.82703 6.65529 9.82741C6.65242 9.82796 6.65015 9.82845 6.64903 9.8287C6.64545 9.82948 6.64232 9.83026 6.64221 9.83028C6.64039 9.83073 6.63776 9.83138 6.63407 9.83231C6.62627 9.83427 6.61093 9.83815 6.58065 9.84581C6.52001 9.86116 6.39879 9.89188 6.15646 9.95332L6.27935 10.438C6.52169 10.3765 6.64281 10.3458 6.70334 10.3305C6.73365 10.3229 6.74861 10.3191 6.75597 10.3172C6.75779 10.3168 6.75907 10.3164 6.75995 10.3162C6.7609 10.316 6.76117 10.3159 6.76108 10.3159C6.76104 10.316 6.76066 10.316 6.76008 10.3162C6.75973 10.3163 6.75809 10.3167 6.75593 10.3171C6.75487 10.3174 6.75265 10.3178 6.74981 10.3184C6.7479 10.3188 6.74105 10.3201 6.73219 10.3211C6.72775 10.3217 6.71898 10.3226 6.70786 10.3228C6.69897 10.323 6.67503 10.3232 6.64544 10.3163C6.61332 10.3087 6.55695 10.2885 6.51077 10.2332C6.48904 10.2072 6.47646 10.1814 6.46912 10.1623C6.46655 10.1552 6.46307 10.1445 6.46202 10.1409C6.46101 10.1372 6.46007 10.1335 6.46007 10.1335L6.94514 10.0123ZM6.46024 10.1342L6.46026 10.1343L6.94495 10.0115L6.94493 10.0114L6.46024 10.1342ZM6.45982 10.1325L6.46012 10.1337L6.94505 10.0119L6.94475 10.0107L6.45982 10.1325ZM6.45815 10.1258L6.45967 10.1319L6.9449 10.0113L6.94337 10.0052L6.45815 10.1258ZM6.45135 10.098L6.45787 10.1247L6.94366 10.0063L6.93715 9.97961L6.45135 10.098ZM6.42525 9.98593C6.43628 10.0346 6.44514 10.0722 6.45119 10.0973L6.93731 9.98028C6.93175 9.9572 6.9234 9.92185 6.91289 9.87545L6.42525 9.98593ZM6.33827 9.56995C6.37246 9.74656 6.40318 9.88852 6.42525 9.98593L6.91289 9.87545C6.89185 9.78259 6.86224 9.64581 6.82916 9.47493L6.33827 9.56995ZM6.13315 8.17617C6.18779 8.72556 6.26984 9.21642 6.33827 9.56995L6.82916 9.47493C6.76283 9.13224 6.68344 8.65705 6.63069 8.12668L6.13315 8.17617ZM6.08138 7.44485C6.09132 7.6917 6.10938 7.93722 6.13315 8.17617L6.63069 8.12668C6.60778 7.89636 6.59048 7.66069 6.58097 7.42472L6.08138 7.44485ZM11.1092 7.18478H6.33118V7.68478H11.1092V7.18478ZM14.8003 7.18478H11.1092V7.68478H14.8003V7.18478ZM14.9983 8.17617C15.0221 7.93722 15.0401 7.6917 15.0501 7.44485L14.5505 7.42472C14.541 7.66069 14.5237 7.89636 14.5008 8.12668L14.9983 8.17617ZM14.7932 9.56995C14.8616 9.21642 14.9437 8.72556 14.9983 8.17617L14.5008 8.12668C14.448 8.65705 14.3686 9.13224 14.3023 9.47493L14.7932 9.56995ZM14.7062 9.98593C14.7283 9.88852 14.759 9.74656 14.7932 9.56995L14.3023 9.47493C14.2692 9.64581 14.2396 9.78259 14.2186 9.87545L14.7062 9.98593ZM14.6803 10.0973C14.6863 10.0722 14.6952 10.0346 14.7062 9.98592L14.2186 9.87545C14.2081 9.92185 14.1997 9.9572 14.1942 9.98028L14.6803 10.0973ZM14.6736 10.1247L14.6801 10.098L14.1943 9.9796L14.1878 10.0063L14.6736 10.1247ZM14.6718 10.1319L14.6733 10.1258L14.1881 10.0052L14.1866 10.0113L14.6718 10.1319ZM14.6713 10.1338L14.6716 10.1326L14.1867 10.0106L14.1864 10.0118L14.6713 10.1338ZM14.6712 10.1343L14.6712 10.1342L14.1865 10.0114L14.1865 10.0115L14.6712 10.1343ZM14.975 9.95332C14.7327 9.89188 14.6115 9.86116 14.5508 9.84581C14.5205 9.83815 14.5052 9.83427 14.4974 9.83231C14.4937 9.83138 14.4911 9.83073 14.4892 9.83028C14.4891 9.83025 14.486 9.82948 14.4824 9.82869C14.4813 9.82844 14.479 9.82795 14.4761 9.8274C14.4742 9.82703 14.4673 9.8257 14.4584 9.82465C14.454 9.82412 14.4452 9.82318 14.4341 9.82295C14.4252 9.82276 14.4014 9.82258 14.3721 9.82943C14.3402 9.83687 14.2847 9.85671 14.2387 9.91066C14.1967 9.95984 14.1857 10.0145 14.1872 10.0087L14.6705 10.1371C14.672 10.1312 14.661 10.186 14.6191 10.2351C14.5731 10.2891 14.5175 10.3089 14.4857 10.3164C14.4563 10.3232 14.4325 10.323 14.4236 10.3228C14.4125 10.3226 14.4038 10.3217 14.3993 10.3211C14.3905 10.3201 14.3836 10.3188 14.3817 10.3184C14.3788 10.3179 14.3766 10.3174 14.3755 10.3171C14.3734 10.3167 14.3717 10.3163 14.3714 10.3162C14.3708 10.3161 14.3704 10.316 14.3704 10.3159C14.3703 10.3159 14.3706 10.316 14.3715 10.3162C14.3724 10.3164 14.3737 10.3168 14.3755 10.3172C14.3828 10.3191 14.3978 10.3229 14.4281 10.3305C14.4887 10.3458 14.6098 10.3765 14.8521 10.438L14.975 9.95332ZM15.1562 10.2558C15.155 10.2604 15.1617 10.2295 15.1796 10.1972C15.2017 10.1572 15.2346 10.1238 15.2748 10.101C15.3372 10.0655 15.3964 10.0683 15.4015 10.0684C15.4176 10.0686 15.4301 10.0703 15.4338 10.0709C15.439 10.0716 15.4431 10.0724 15.4451 10.0728C15.4492 10.0735 15.4522 10.0742 15.453 10.0744C15.4541 10.0747 15.455 10.0749 15.4552 10.0749C15.4559 10.0751 15.4553 10.0749 15.4513 10.074C15.4441 10.0722 15.4293 10.0684 15.3989 10.0607C15.3384 10.0454 15.2173 10.0148 14.975 9.95332L14.8521 10.438C15.0944 10.4994 15.2157 10.5301 15.2764 10.5455C15.3066 10.5531 15.3221 10.557 15.3301 10.559C15.3337 10.5599 15.3369 10.5607 15.3394 10.5613C15.3401 10.5615 15.3413 10.5618 15.3428 10.5621C15.3438 10.5623 15.347 10.5631 15.3512 10.5639C15.3532 10.5643 15.3574 10.565 15.3627 10.5658C15.3664 10.5663 15.3789 10.5681 15.395 10.5683C15.4001 10.5684 15.4593 10.5712 15.5218 10.5357C15.562 10.5129 15.5948 10.4795 15.617 10.4394C15.6348 10.4072 15.6415 10.3762 15.6403 10.3809L15.1562 10.2558ZM15.1559 10.257L15.1558 10.2573L15.6407 10.3793L15.6408 10.379L15.1559 10.257ZM15.1561 10.2561L15.1559 10.2569L15.6408 10.3791L15.641 10.3783L15.1561 10.2561ZM15.1568 10.2536L15.1561 10.2563L15.641 10.3781L15.6417 10.3755L15.1568 10.2536ZM15.1589 10.2452L15.1566 10.2542L15.6418 10.3749L15.6441 10.3659L15.1589 10.2452ZM15.1666 10.2136L15.1586 10.2464L15.6444 10.3647L15.6523 10.332L15.1666 10.2136ZM15.1939 10.0964C15.1823 10.1474 15.1729 10.1871 15.1664 10.2143L15.6525 10.3313C15.6595 10.302 15.6694 10.2602 15.6815 10.2069L15.1939 10.0964ZM15.2841 9.66497C15.2488 9.84732 15.217 9.99445 15.1939 10.0964L15.6815 10.2069C15.7056 10.1004 15.7386 9.94807 15.775 9.76L15.2841 9.66497ZM15.4959 8.22565C15.4393 8.79407 15.3546 9.30059 15.2841 9.66497L15.775 9.76C15.8476 9.38476 15.935 8.86258 15.9934 8.27514L15.4959 8.22565ZM15.5514 7.42551C15.5411 7.70374 15.521 7.97326 15.4959 8.22565L15.9934 8.27514C16.0194 8.0142 16.0403 7.73423 16.0511 7.44405L15.5514 7.42551ZM18.2578 7.18478H15.8012V7.68478H18.2578V7.18478ZM19.9187 24.3547L18.507 7.41402L18.0087 7.45554L19.4204 24.3962L19.9187 24.3547ZM18.1747 26.25C19.1985 26.25 20.0037 25.375 19.9187 24.3547L19.4204 24.3962C19.4811 25.125 18.906 25.75 18.1747 25.75V26.25ZM3.50017 26.25H18.1747V25.75H3.50017V26.25ZM1.75622 24.3547C1.67119 25.375 2.47635 26.25 3.50017 26.25V25.75C2.76887 25.75 2.19376 25.125 2.25449 24.3962L1.75622 24.3547ZM3.16794 7.41402L1.75622 24.3547L2.25449 24.3962L3.66621 7.45554L3.16794 7.41402ZM5.33021 7.18478H3.41708V7.68478H5.33021V7.18478ZM5.59027 6.45078C5.63167 5.8051 5.74995 5.17819 5.99091 4.65611L5.53694 4.44658C5.26068 5.04513 5.13486 5.73926 5.09129 6.41879L5.59027 6.45078ZM5.99091 4.6561C6.44573 3.67067 6.81711 3.0769 7.69421 2.39012L7.38596 1.99645C6.42572 2.74833 6.01196 3.41737 5.53694 4.44658L5.99091 4.6561ZM7.69421 2.39012C8.14878 2.03419 8.56258 1.74647 9.01652 1.54983L8.81778 1.09103C8.30407 1.31355 7.84993 1.63315 7.38596 1.99645L7.69421 2.39012ZM9.01652 1.54983C9.47493 1.35127 9.96356 1.25 10.5657 1.25V0.75C9.9022 0.75 9.34505 0.862633 8.81778 1.09103L9.01652 1.54983ZM10.5657 1.25C11.1679 1.25 11.6565 1.35127 12.1149 1.54983L12.3137 1.09103C11.7864 0.862633 11.2293 0.75 10.5657 0.75V1.25ZM12.1149 1.54983C12.5689 1.74647 12.9827 2.03419 13.4372 2.39012L13.7455 1.99645C13.2815 1.63315 12.8274 1.31355 12.3137 1.09103L12.1149 1.54983ZM13.4372 2.39012C14.3143 3.07691 14.6857 3.67067 15.1405 4.6561L15.5945 4.44658C15.1195 3.41737 14.7057 2.74833 13.7455 1.99645L13.4372 2.39012ZM15.1405 4.65611C15.3815 5.17819 15.4998 5.8051 15.5412 6.45078L16.0402 6.41879C15.9966 5.73927 15.8708 5.04513 15.5945 4.44658L15.1405 4.65611ZM15.7907 6.68478H18.7179V6.18478H15.7907V6.68478ZM18.7179 6.68478H19.1779V6.18478H18.7179V6.68478ZM18.9288 6.45554L18.967 6.91402L19.4653 6.8725L19.4271 6.41402L18.9288 6.45554ZM18.967 6.91402L20.4169 24.3132L20.9152 24.2716L19.4653 6.8725L18.967 6.91402ZM20.4169 24.3132C20.5263 25.6249 19.4911 26.75 18.1747 26.75V27.25C19.7836 27.25 21.0488 25.8749 20.9152 24.2716L20.4169 24.3132ZM18.1747 26.75H3.50017V27.25H18.1747V26.75ZM3.50017 26.75C2.18383 26.75 1.14863 25.6249 1.25794 24.3131L0.759672 24.2716C0.626063 25.8749 1.89131 27.25 3.50017 27.25V26.75ZM1.25794 24.3131L2.70787 6.91402L2.2096 6.8725L0.759672 24.2716L1.25794 24.3131ZM2.70787 6.91402L2.74608 6.45554L2.24781 6.41402L2.2096 6.8725L2.70787 6.91402ZM2.49694 6.68478H2.95701V6.18478H2.49694V6.68478ZM2.95701 6.68478H5.34078V6.18478H2.95701V6.68478Z" fill="black"/>
</svg>
