<svg width="27" height="27" viewBox="0 0 27 27" fill="none" xmlns="http://www.w3.org/2000/svg">
<path d="M25.5096 3.05412e-08H1.48909C0.666595 0.000494417 -0.000164764 0.667584 3.05412e-08 1.49041V25.5109C0.000494417 26.3334 0.667584 27.0002 1.49041 27H14.4229V16.5586H10.916V12.4717H14.4229V9.46401C14.4229 5.97612 16.5522 4.07769 19.6635 4.07769C21.1537 4.07769 22.4344 4.18876 22.8076 4.23836V7.88379H20.6622C18.9694 7.88379 18.6416 8.68815 18.6416 9.86874V12.4717H22.689L22.1616 16.5586H18.6416V27H25.5096C26.3326 27.0002 26.9998 26.3332 27 25.5103C27 25.5101 27 25.5099 27 25.5096V1.48909C26.9997 0.666595 26.3324 -0.000164764 25.5096 3.05412e-08Z" fill="white"/>
</svg>
