<svg width="34" height="34" viewBox="0 0 34 34" fill="none" xmlns="http://www.w3.org/2000/svg">
<path d="M17 29C16.8205 28.9994 16.6461 28.938 16.5043 28.8254C11.9861 25.2333 8.87369 22.1401 6.69584 19.0885C3.91664 15.1887 3.28279 11.5883 4.81054 8.38697C5.89946 6.10033 9.02809 4.22944 12.6849 5.31871C14.4285 5.83403 15.9497 6.93914 17 8.45349C18.0503 6.93914 19.5715 5.83403 21.3151 5.31871C24.9638 4.24607 28.1005 6.10033 29.1895 8.38697C30.7172 11.5883 30.0834 15.1887 27.3042 19.0885C25.1263 22.1401 22.0139 25.2333 17.4957 28.8254C17.3539 28.938 17.1796 28.9994 17 29Z" stroke="black" stroke-width="1.5"/>
</svg>
