<svg width="34" height="34" viewBox="0 0 34 34" fill="none" xmlns="http://www.w3.org/2000/svg">
<path fill-rule="evenodd" clip-rule="evenodd" d="M11.1068 10.575C11.1068 7.49603 13.6028 5 16.6818 5C19.7608 5 22.2568 7.49603 22.2568 10.575C22.2568 13.6541 19.7608 16.1501 16.6818 16.1501C13.6028 16.1501 11.1068 13.6541 11.1068 10.575ZM16.6818 4C13.0505 4 10.1068 6.94375 10.1068 10.575C10.1068 14.2063 13.0505 17.1501 16.6818 17.1501C20.3131 17.1501 23.2568 14.2063 23.2568 10.575C23.2568 6.94375 20.3131 4 16.6818 4ZM16.1489 18.8065C18.6876 18.7073 21.1501 20.2319 23.263 22.2546C25.3614 24.2636 27.0279 26.6807 27.9673 28.1839C28.1456 28.4692 27.9572 28.8524 27.5691 28.8524H5.4724C5.08585 28.8524 4.89758 28.4742 5.06991 28.1898C5.95045 26.7364 7.49802 24.419 9.45728 22.4457C11.4301 20.4588 13.7416 18.9006 16.1489 18.8065ZM28.8153 27.6539C27.8567 26.1199 26.1391 23.6238 23.9545 21.5323C21.7844 19.4547 19.0649 17.6918 16.1098 17.8073C13.3151 17.9165 10.7729 19.7014 8.74765 21.7412C6.70881 23.7946 5.11385 26.1874 4.21464 27.6716C3.61071 28.6684 4.36092 29.8524 5.4724 29.8524H27.5691C28.6907 29.8524 29.4371 28.6489 28.8153 27.6539Z" fill="black"/>
<path d="M23.263 22.2546L23.4358 22.0741L23.263 22.2546ZM16.1489 18.8065L16.1391 18.5567L16.1489 18.8065ZM27.9673 28.1839L28.1793 28.0514V28.0514L27.9673 28.1839ZM5.06991 28.1898L4.85609 28.0602H4.85609L5.06991 28.1898ZM9.45728 22.4457L9.27987 22.2696L9.45728 22.4457ZM23.9545 21.5323L23.7816 21.7129L23.9545 21.5323ZM28.8153 27.6539L28.6033 27.7864L28.8153 27.6539ZM16.1098 17.8073L16.1196 18.0571L16.1098 17.8073ZM8.74765 21.7412L8.92506 21.9173L8.74765 21.7412ZM4.21464 27.6716L4.00083 27.542H4.00083L4.21464 27.6716ZM16.6818 4.75C13.4647 4.75 10.8568 7.35796 10.8568 10.575H11.3568C11.3568 7.6341 13.7409 5.25 16.6818 5.25V4.75ZM22.5068 10.575C22.5068 7.35796 19.8989 4.75 16.6818 4.75V5.25C19.6227 5.25 22.0068 7.6341 22.0068 10.575H22.5068ZM16.6818 16.4001C19.8989 16.4001 22.5068 13.7921 22.5068 10.575H22.0068C22.0068 13.516 19.6227 15.9001 16.6818 15.9001V16.4001ZM10.8568 10.575C10.8568 13.7921 13.4647 16.4001 16.6818 16.4001V15.9001C13.7409 15.9001 11.3568 13.516 11.3568 10.575H10.8568ZM10.3568 10.575C10.3568 7.08182 13.1886 4.25 16.6818 4.25V3.75C12.9124 3.75 9.85676 6.80568 9.85676 10.575H10.3568ZM16.6818 16.9001C13.1886 16.9001 10.3568 14.0683 10.3568 10.575H9.85676C9.85676 14.3444 12.9124 17.4001 16.6818 17.4001V16.9001ZM23.0068 10.575C23.0068 14.0683 20.175 16.9001 16.6818 16.9001V17.4001C20.4512 17.4001 23.5068 14.3444 23.5068 10.575H23.0068ZM16.6818 4.25C20.175 4.25 23.0068 7.08182 23.0068 10.575H23.5068C23.5068 6.80568 20.4512 3.75 16.6818 3.75V4.25ZM23.4358 22.0741C21.3086 20.0375 18.7819 18.4534 16.1391 18.5567L16.1586 19.0563C18.5933 18.9612 20.9915 20.4262 23.0901 22.4352L23.4358 22.0741ZM28.1793 28.0514C27.2351 26.5405 25.5558 24.1036 23.4358 22.0741L23.0901 22.4352C25.1669 24.4235 26.8207 26.8209 27.7553 28.3164L28.1793 28.0514ZM27.5691 29.1024C28.1518 29.1024 28.4626 28.5048 28.1793 28.0514L27.7553 28.3164C27.7947 28.3795 27.7926 28.4491 27.7623 28.5034C27.7339 28.5542 27.6742 28.6024 27.5691 28.6024V29.1024ZM5.4724 29.1024H27.5691V28.6024H5.4724V29.1024ZM4.85609 28.0602C4.58171 28.5131 4.8932 29.1024 5.4724 29.1024V28.6024C5.36719 28.6024 5.3075 28.5546 5.279 28.5044C5.24849 28.4506 5.24589 28.3818 5.28373 28.3193L4.85609 28.0602ZM9.27987 22.2696C7.30072 24.2629 5.7413 26.5992 4.85609 28.0602L5.28373 28.3193C6.1596 26.8737 7.69533 24.5751 9.63468 22.6219L9.27987 22.2696ZM16.1391 18.5567C13.635 18.6546 11.2658 20.2694 9.27987 22.2696L9.63468 22.6219C11.5944 20.6481 13.8483 19.1466 16.1586 19.0563L16.1391 18.5567ZM23.7816 21.7129C25.9447 23.7837 27.6495 26.2601 28.6033 27.7864L29.0273 27.5215C28.0639 25.9797 26.3336 23.4638 24.1274 21.3517L23.7816 21.7129ZM16.1196 18.0571C18.9705 17.9457 21.6258 19.649 23.7816 21.7129L24.1274 21.3517C21.943 19.2604 19.1593 17.4379 16.1001 17.5575L16.1196 18.0571ZM8.92506 21.9173C10.9372 19.8908 13.4217 18.1625 16.1196 18.0571L16.1001 17.5575C13.2084 17.6705 10.6086 19.5121 8.57025 21.565L8.92506 21.9173ZM4.42846 27.8011C5.323 26.3247 6.90611 23.9507 8.92506 21.9173L8.57025 21.565C6.5115 23.6385 4.90471 26.0502 4.00083 27.542L4.42846 27.8011ZM5.4724 29.6024C4.53865 29.6024 3.9342 28.6169 4.42846 27.8011L4.00083 27.542C3.28722 28.7198 4.1832 30.1024 5.4724 30.1024V29.6024ZM27.5691 29.6024H5.4724V30.1024H27.5691V29.6024ZM28.6033 27.7864C29.1125 28.6012 28.5108 29.6024 27.5691 29.6024V30.1024C28.8706 30.1024 29.7618 28.6967 29.0273 27.5215L28.6033 27.7864Z" fill="black"/>
</svg>
