<svg width="26" height="26" viewBox="0 0 26 26" fill="none" xmlns="http://www.w3.org/2000/svg">
<path fill-rule="evenodd" clip-rule="evenodd" d="M17.6618 19.3988C15.9102 20.7766 13.7007 21.5985 11.2993 21.5985C5.61113 21.5985 1 16.9874 1 11.2993C1 5.61113 5.61113 1 11.2993 1C16.9874 1 21.5985 5.61113 21.5985 11.2993C21.5985 13.9634 20.5869 16.3913 18.9269 18.2198L24.7844 24.0773C25.1218 24.4147 25.1218 24.9619 24.7844 25.2993C24.4469 25.6368 23.8998 25.6368 23.5623 25.2993L17.6618 19.3988ZM11.2993 20.5985C6.16342 20.5985 2 16.4351 2 11.2993C2 6.16342 6.16342 2 11.2993 2C16.4351 2 20.5985 6.16342 20.5985 11.2993C20.5985 13.9008 19.5315 16.2514 17.8087 17.9403C16.1303 19.5856 13.8341 20.5985 11.2993 20.5985Z" fill="black"/>
<path d="M17.6618 19.3988L17.8385 19.222L17.6816 19.0651L17.5072 19.2023L17.6618 19.3988ZM18.9269 18.2198L18.7418 18.0518L18.5817 18.2282L18.7502 18.3966L18.9269 18.2198ZM24.7844 24.0773L24.6076 24.254L24.7844 24.0773ZM17.8087 17.9403L17.9837 18.1188L17.8087 17.9403ZM17.5072 19.2023C15.7981 20.5467 13.6427 21.3485 11.2993 21.3485V21.8485C13.7587 21.8485 16.0223 21.0065 17.8163 19.5953L17.5072 19.2023ZM11.2993 21.3485C5.7492 21.3485 1.25 16.8493 1.25 11.2993H0.75C0.75 17.1254 5.47306 21.8485 11.2993 21.8485V21.3485ZM1.25 11.2993C1.25 5.7492 5.7492 1.25 11.2993 1.25V0.75C5.47306 0.75 0.75 5.47306 0.75 11.2993H1.25ZM11.2993 1.25C16.8493 1.25 21.3485 5.7492 21.3485 11.2993H21.8485C21.8485 5.47306 17.1254 0.75 11.2993 0.75V1.25ZM21.3485 11.2993C21.3485 13.8989 20.3617 16.2675 18.7418 18.0518L19.112 18.3879C20.8122 16.5152 21.8485 14.0279 21.8485 11.2993H21.3485ZM18.7502 18.3966L24.6076 24.254L24.9611 23.9005L19.1037 18.0431L18.7502 18.3966ZM24.6076 24.254C24.8474 24.4939 24.8474 24.8827 24.6076 25.1225L24.9611 25.4761C25.3962 25.041 25.3962 24.3356 24.9611 23.9005L24.6076 24.254ZM24.6076 25.1225C24.3678 25.3624 23.9789 25.3624 23.7391 25.1225L23.3855 25.4761C23.8206 25.9112 24.526 25.9112 24.9611 25.4761L24.6076 25.1225ZM23.7391 25.1225L17.8385 19.222L17.485 19.5756L23.3855 25.4761L23.7391 25.1225ZM1.75 11.2993C1.75 16.5732 6.02535 20.8485 11.2993 20.8485V20.3485C6.30149 20.3485 2.25 16.297 2.25 11.2993H1.75ZM11.2993 1.75C6.02535 1.75 1.75 6.02535 1.75 11.2993H2.25C2.25 6.30149 6.30149 2.25 11.2993 2.25V1.75ZM20.8485 11.2993C20.8485 6.02535 16.5732 1.75 11.2993 1.75V2.25C16.297 2.25 20.3485 6.30149 20.3485 11.2993H20.8485ZM17.9837 18.1188C19.7525 16.3848 20.8485 13.9707 20.8485 11.2993H20.3485C20.3485 13.831 19.3105 16.118 17.6337 17.7618L17.9837 18.1188ZM11.2993 20.8485C13.9021 20.8485 16.2605 19.8081 17.9837 18.1188L17.6337 17.7618C16.0001 19.3631 13.766 20.3485 11.2993 20.3485V20.8485Z" fill="black"/>
</svg>
