<svg width="27" height="23" viewBox="0 0 27 23" fill="none" xmlns="http://www.w3.org/2000/svg">
<path d="M27 3.12831C25.9959 3.56875 24.9261 3.86069 23.8106 4.00244C24.9581 3.31731 25.8339 2.24069 26.2457 0.943C25.1758 1.58087 23.9946 2.03144 22.7357 2.28288C21.7198 1.20119 20.2719 0.53125 18.6924 0.53125C15.6279 0.53125 13.1608 3.01863 13.1608 6.06794C13.1608 6.50669 13.1979 6.92856 13.2891 7.33019C8.68725 7.10575 4.61531 4.90019 1.87987 1.54038C1.40231 2.36894 1.12219 3.31731 1.12219 4.33825C1.12219 6.25525 2.10938 7.95456 3.58087 8.93837C2.69156 8.9215 1.81912 8.66331 1.08 8.25663C1.08 8.2735 1.08 8.29544 1.08 8.31737C1.08 11.0072 2.99869 13.2415 5.51475 13.7562C5.06419 13.8794 4.57312 13.9384 4.0635 13.9384C3.70912 13.9384 3.35137 13.9182 3.01556 13.8439C3.73275 16.036 5.76788 17.6476 8.18775 17.6999C6.3045 19.1731 3.91331 20.0607 1.32469 20.0607C0.87075 20.0607 0.435375 20.0404 0 19.9847C2.45194 21.5659 5.35781 22.4688 8.4915 22.4688C18.6772 22.4688 24.246 14.0312 24.246 6.71762C24.246 6.47294 24.2376 6.23669 24.2257 6.00213C25.3243 5.2225 26.2474 4.24881 27 3.12831Z" fill="white"/>
</svg>
