<svg width="58" height="58" viewBox="0 0 58 58" fill="none" xmlns="http://www.w3.org/2000/svg">
<circle cx="29" cy="29" r="29" fill="white"/>
<path d="M38.6163 11.78L42.3513 14.165L21.4713 45.62L17.7813 43.235L38.6163 11.78ZM20.3463 13.175C21.7863 13.175 23.0913 13.505 24.2612 14.165C25.4313 14.795 26.3463 15.71 27.0063 16.91C27.6963 18.11 28.0413 19.49 28.0413 21.05C28.0413 22.61 27.6963 23.99 27.0063 25.19C26.3463 26.39 25.4313 27.32 24.2612 27.98C23.0913 28.61 21.7863 28.925 20.3463 28.925C18.9063 28.925 17.6013 28.61 16.4313 27.98C15.2913 27.32 14.3763 26.39 13.6863 25.19C13.0263 23.99 12.6963 22.61 12.6963 21.05C12.6963 19.49 13.0263 18.11 13.6863 16.91C14.3763 15.71 15.2913 14.795 16.4313 14.165C17.6013 13.505 18.9063 13.175 20.3463 13.175ZM20.3463 16.775C19.1763 16.775 18.3363 17.18 17.8263 17.99C17.3463 18.77 17.1063 19.79 17.1063 21.05C17.1063 22.28 17.3463 23.3 17.8263 24.11C18.3363 24.92 19.1763 25.325 20.3463 25.325C22.5063 25.325 23.5863 23.9 23.5863 21.05C23.5863 18.2 22.5063 16.775 20.3463 16.775ZM39.6963 28.925C41.1363 28.925 42.4413 29.255 43.6113 29.915C44.7813 30.545 45.6963 31.46 46.3563 32.66C47.0163 33.86 47.3463 35.24 47.3463 36.8C47.3463 38.36 47.0163 39.74 46.3563 40.94C45.6963 42.14 44.7813 43.07 43.6113 43.73C42.4413 44.36 41.1363 44.675 39.6963 44.675C38.2563 44.675 36.9513 44.36 35.7813 43.73C34.6113 43.07 33.6813 42.14 32.9913 40.94C32.3313 39.74 32.0013 38.36 32.0013 36.8C32.0013 35.24 32.3313 33.86 32.9913 32.66C33.6813 31.46 34.6113 30.545 35.7813 29.915C36.9513 29.255 38.2563 28.925 39.6963 28.925ZM39.6963 32.525C38.5263 32.525 37.6863 32.93 37.1763 33.74C36.6963 34.52 36.4562 35.54 36.4562 36.8C36.4562 38.03 36.6963 39.05 37.1763 39.86C37.6863 40.67 38.5263 41.075 39.6963 41.075C41.8563 41.075 42.9363 39.65 42.9363 36.8C42.9363 33.95 41.8563 32.525 39.6963 32.525Z" fill="#C12633"/>
</svg>
