<svg width="148" height="170" viewBox="0 0 148 170" fill="none" xmlns="http://www.w3.org/2000/svg">
<path d="M53.1954 17.3018C62.8664 14.0053 71.8542 12.513 80.159 12.8249C88.5861 13.0951 96.6975 15.0443 104.493 18.6725L95.3861 41.8629C84.1936 37.8896 73.7619 37.5512 64.0909 40.8477C59.0719 42.5585 55.5495 44.8523 53.524 47.729C51.5792 50.4415 51.191 53.5117 52.3594 56.9393C53.1939 59.3877 54.5557 61.178 56.4448 62.3104C58.3338 63.4428 61.1201 64.2011 64.8037 64.5852C68.4873 64.9692 74.1323 65.0946 81.7387 64.9614C96.2561 64.6586 107.599 66.6678 115.767 70.9888C124.016 75.1456 130.039 82.794 133.837 93.9339C136.591 102.013 136.951 109.884 134.917 117.546C132.841 125.086 128.409 131.926 121.62 138.066C114.954 144.164 106.295 149.028 95.6451 152.659C75.3239 159.585 56.6291 159.058 39.5608 151.075L49.9489 126.833C62.947 131.694 74.9548 132.246 85.9723 128.491C91.7259 126.53 95.7768 123.782 98.1251 120.249C100.432 116.593 100.876 112.685 99.4568 108.522C98.4553 105.584 97.0296 103.406 95.1795 101.987C93.2876 100.446 90.5 99.4828 86.8164 99.0987C83.2135 98.5505 78.0999 98.3806 71.4755 98.589C55.4864 98.9835 43.4689 96.9994 35.423 92.6367C27.3772 88.274 21.706 81.2571 18.4094 71.5862C15.8223 63.9964 15.568 56.6361 17.6465 49.5055C19.8475 42.3332 24.0377 35.9858 30.217 30.4634C36.4771 24.7769 44.1366 20.3897 53.1954 17.3018Z" fill="white"/>
</svg>
